<?xml version="1.0" encoding="UTF-8"?>
<svg width="14px" height="12px" viewBox="0 0 14 12" version="1.1" xmlns="http://www.w3.org/2000/svg" xmlns:xlink="http://www.w3.org/1999/xlink">
    <!-- Generator: Sketch 48.1 (47250) - http://www.bohemiancoding.com/sketch -->
    <title>wechat</title>
    <desc>Created with Sketch.</desc>
    <defs>
        <radialGradient cx="50%" cy="0%" fx="50%" fy="0%" r="127.090233%" gradientTransform="translate(0.500000,0.000000),scale(0.938956,1.000000),rotate(90.000000),translate(-0.500000,-0.000000)" id="radialGradient-1">
            <stop stop-color="#95FF00" offset="0%"></stop>
            <stop stop-color="#69CC15" offset="100%"></stop>
        </radialGradient>
        <radialGradient cx="50%" cy="0%" fx="50%" fy="0%" r="95.0299192%" gradientTransform="translate(0.500000,0.000000),scale(0.906798,1.000000),rotate(90.000000),translate(-0.500000,-0.000000)" id="radialGradient-2">
            <stop stop-color="#FFFFFF" offset="0%"></stop>
            <stop stop-color="#DFEAEB" offset="100%"></stop>
        </radialGradient>
        <linearGradient x1="50%" y1="0%" x2="50%" y2="100%" id="linearGradient-3">
            <stop stop-color="#1F9E47" offset="0%"></stop>
            <stop stop-color="#0C7B2F" offset="100%"></stop>
        </linearGradient>
        <linearGradient x1="50%" y1="0%" x2="50%" y2="100%" id="linearGradient-4">
            <stop stop-color="#5C7564" offset="0%"></stop>
            <stop stop-color="#495E4F" offset="100%"></stop>
        </linearGradient>
        <linearGradient x1="50%" y1="0%" x2="50%" y2="100%" id="linearGradient-5">
            <stop stop-color="#607B68" offset="0%"></stop>
            <stop stop-color="#495E4F" offset="100%"></stop>
        </linearGradient>
    </defs>
    <g id="机器人设置" stroke="none" stroke-width="1" fill="none" fill-rule="evenodd" transform="translate(-1585.000000, -169.000000)">
        <g id="wechat" transform="translate(1585.000000, 169.000000)">
            <g id="Group">
                <path d="M10.3236062,4.60084131 C10.3236062,7.12272741 8.01472619,9.16712327 5.16659217,9.16712327 C4.51134592,9.16712327 3.88454953,9.05891812 3.30790584,8.86155629 C2.9172974,9.05891795 1.62059334,9.71892089 1.62059334,9.71892089 C1.62059334,9.71892089 1.79382996,8.8615564 1.91807986,8.14745094 C0.753659942,7.31016942 0.00963440786,6.03246004 0.00963440786,4.60084131 C0.00963440786,2.07901606 2.31845815,0.0345593379 5.16659217,0.0345593379 C8.01472619,0.0345593379 10.3236062,2.07901606 10.3236062,4.60084131 Z" id="Path-Copy-6" fill="url(#radialGradient-1)"></path>
                <path d="M5.13015666,7.59390501 C5.13015666,9.64942159 7.07880895,11.3157769 9.48257299,11.3157769 C10.0356209,11.3157769 10.5645667,11.2275355 11.0512488,11.0666664 C11.438287,11.2275355 12.4753118,11.7655006 12.4753118,11.7655006 C12.4753118,11.7655006 12.3248004,10.9738195 12.2243328,10.4845805 C13.2070324,9.80218808 13.8349893,8.76073817 13.8349893,7.59390501 C13.8349893,5.53827014 11.886337,3.87197396 9.48257299,3.87197396 C7.07880895,3.87197396 5.13015666,5.53827014 5.13015666,7.59390501 Z" id="Path-Copy" fill="url(#radialGradient-2)"></path>
                <path d="M3.31886704,2.20106273 C3.7090349,2.20106273 4.02533189,2.52220583 4.02533189,2.91842284 C4.02533189,3.31458211 3.7090349,3.63578296 3.31886704,3.63578296 C2.92869918,3.63578296 2.61245905,3.31458211 2.61245905,2.91842284 C2.61245905,2.52220583 2.92869918,2.20106273 3.31886704,2.20106273 L3.31886704,2.20106273 Z" id="Path-Copy-2" fill="url(#linearGradient-3)"></path>
                <path d="M7.02225075,2.20106273 C7.41236175,2.20106273 7.72865874,2.52220583 7.72865874,2.91842284 C7.72865874,3.31458211 7.41236175,3.63578296 7.02225075,3.63578296 C6.63208289,3.63578296 6.3157859,3.31458211 6.3157859,2.91842284 C6.3157859,2.52220583 6.63208289,2.20106273 7.02225075,2.20106273 L7.02225075,2.20106273 Z" id="Path-Copy-3" fill="url(#linearGradient-3)"></path>
                <path d="M8.54758121,6.34098426 C8.54758121,6.69749512 8.26295267,6.98657566 7.91178843,6.98657566 C7.56062419,6.98657566 7.27599565,6.69749512 7.27599565,6.34098426 C7.27599565,5.98440799 7.56062419,5.69532745 7.91178843,5.69532745 C8.26295267,5.69532745 8.54758121,5.98440799 8.54758121,6.34098426 Z" id="Path-Copy-4" fill="url(#linearGradient-4)"></path>
                <path d="M11.0433736,5.69532745 C11.3944556,5.69532745 11.6791342,5.98440799 11.6791342,6.34098426 C11.6791342,6.69749512 11.3944556,6.98657566 11.0433736,6.98657566 C10.6922915,6.98657566 10.4075486,6.69749512 10.4075486,6.34098426 C10.4075486,5.98440799 10.6922915,5.69532745 11.0433736,5.69532745 L11.0433736,5.69532745 Z" id="Path-Copy-5" fill="url(#linearGradient-5)"></path>
            </g>
        </g>
    </g>
</svg>